<svg width="231" height="24" fill="none" xmlns="http://www.w3.org/2000/svg"><path d="M.112 23V.6h7.84l3.872 19.52h.576L16.272.6h7.84V23h-4.096V3.704h-.576L15.6 23H8.624L4.784 3.704h-.576V23H.112Zm33.95.256c-1.237 0-2.325-.277-3.264-.832a5.906 5.906 0 0 1-2.144-2.368c-.512-1.003-.768-2.155-.768-3.456V7.128h4.032v9.152c0 1.195.288 2.09.864 2.688.598.597 1.44.896 2.528.896 1.238 0 2.198-.405 2.88-1.216.683-.832 1.024-1.984 1.024-3.456V7.128h4.032V23h-3.968v-2.08h-.576c-.256.533-.736 1.056-1.44 1.568s-1.77.768-3.2.768ZM47.29 23V.6h4.032v12.384h.576l5.248-5.856h5.248l-7.328 7.68L62.649 23h-5.184l-5.568-6.304h-.576V23h-4.032Zm17.618 0V.6h4.032v8.48h.576c.17-.341.437-.683.8-1.024.362-.341.842-.619 1.44-.832.618-.235 1.397-.352 2.336-.352 1.237 0 2.314.288 3.232.864a5.617 5.617 0 0 1 2.176 2.336c.512.981.768 2.133.768 3.456V23h-4.032v-9.152c0-1.195-.299-2.09-.896-2.688-.576-.597-1.408-.896-2.496-.896-1.238 0-2.198.416-2.88 1.248-.683.81-1.024 1.952-1.024 3.424V23h-4.032Zm19.274 0V.6h4.032V23h-4.032Zm8.056 0V7.128h4.032V23h-4.032Zm2.016-17.728c-.726 0-1.344-.235-1.856-.704-.491-.47-.737-1.088-.737-1.856s.246-1.387.737-1.856c.511-.47 1.13-.704 1.855-.704.747 0 1.366.235 1.857.704.49.47.736 1.088.736 1.856s-.246 1.387-.736 1.856c-.491.47-1.11.704-1.856.704Zm12.631 18.176c-2.069 0-3.765-.448-5.088-1.344-1.323-.896-2.123-2.176-2.4-3.84l3.712-.96c.149.747.395 1.333.736 1.76.363.427.8.736 1.312.928.533.17 1.109.256 1.728.256.939 0 1.632-.16 2.08-.48.448-.341.672-.757.672-1.248 0-.49-.213-.864-.64-1.12-.427-.277-1.109-.501-2.048-.672l-.896-.16a16.986 16.986 0 0 1-3.04-.864c-.917-.384-1.653-.907-2.208-1.568-.555-.661-.832-1.515-.832-2.56 0-1.579.576-2.784 1.728-3.616 1.152-.853 2.667-1.28 4.544-1.28 1.771 0 3.243.395 4.416 1.184 1.173.79 1.941 1.824 2.304 3.104l-3.744 1.152c-.171-.81-.523-1.387-1.056-1.728-.512-.341-1.152-.512-1.92-.512s-1.355.139-1.76.416c-.405.256-.608.619-.608 1.088 0 .512.213.896.64 1.152.427.235 1.003.416 1.728.544l.896.16c1.195.213 2.272.501 3.232.864.981.341 1.749.843 2.304 1.504.576.64.864 1.515.864 2.624 0 1.664-.608 2.955-1.824 3.872-1.195.896-2.805 1.344-4.832 1.344Zm14.548 0c-1.131 0-2.144-.192-3.04-.576-.896-.405-1.611-.981-2.144-1.728-.512-.768-.768-1.696-.768-2.784 0-1.088.256-1.995.768-2.72.533-.747 1.259-1.301 2.176-1.664.939-.384 2.005-.576 3.2-.576h4.352v-.896c0-.747-.235-1.355-.704-1.824-.469-.49-1.216-.736-2.24-.736-1.003 0-1.749.235-2.24.704-.491.448-.811 1.035-.96 1.76l-3.712-1.248a6.404 6.404 0 0 1 1.216-2.208c.576-.683 1.333-1.227 2.272-1.632.96-.427 2.123-.64 3.488-.64 2.091 0 3.744.523 4.96 1.568 1.216 1.045 1.824 2.56 1.824 4.544v5.92c0 .64.299.96.896.96h1.28V23h-2.688c-.789 0-1.44-.192-1.952-.576a1.825 1.825 0 0 1-.768-1.536v-.032h-.608c-.085.256-.277.597-.576 1.024-.299.405-.768.768-1.408 1.088-.64.32-1.515.48-2.624.48Zm.704-3.264c1.131 0 2.048-.31 2.752-.928.725-.64 1.088-1.483 1.088-2.528v-.32h-4.064c-.747 0-1.333.16-1.76.48-.427.32-.64.768-.64 1.344 0 .576.224 1.045.672 1.408.448.363 1.099.544 1.952.544Zm20.071 3.264c-1.728 0-3.253-.31-4.576-.928-1.322-.619-2.357-1.504-3.104-2.656-.746-1.152-1.12-2.539-1.12-4.16v-.896h4.16v.896c0 1.344.416 2.357 1.248 3.04.832.661 1.963.992 3.392.992 1.451 0 2.528-.288 3.232-.864.726-.576 1.088-1.312 1.088-2.208 0-.619-.181-1.12-.544-1.504-.341-.384-.853-.693-1.536-.928-.661-.256-1.472-.49-2.432-.704l-.736-.16c-1.536-.341-2.858-.768-3.968-1.28-1.088-.533-1.93-1.227-2.528-2.08-.576-.853-.864-1.963-.864-3.328 0-1.365.32-2.528.96-3.488.662-.981 1.579-1.728 2.752-2.24 1.195-.533 2.592-.8 4.192-.8s3.019.277 4.256.832c1.259.533 2.24 1.344 2.944 2.432.726 1.067 1.088 2.41 1.088 4.032v.96h-4.16v-.96c0-.853-.17-1.536-.512-2.048-.32-.533-.789-.917-1.408-1.152-.618-.256-1.354-.384-2.208-.384-1.28 0-2.229.245-2.848.736-.597.47-.896 1.12-.896 1.952 0 .555.139 1.024.416 1.408.299.384.736.704 1.312.96.576.256 1.312.48 2.208.672l.736.16c1.6.341 2.987.779 4.16 1.312 1.195.533 2.123 1.237 2.784 2.112.662.875.992 1.995.992 3.36 0 1.365-.352 2.57-1.056 3.616-.682 1.024-1.664 1.835-2.944 2.432-1.258.576-2.752.864-4.48.864ZM153.521 23V.6h4.032v8.48h.576c.171-.341.438-.683.8-1.024.363-.341.843-.619 1.44-.832.619-.235 1.398-.352 2.336-.352 1.238 0 2.315.288 3.232.864a5.614 5.614 0 0 1 2.176 2.336c.512.981.768 2.133.768 3.456V23h-4.032v-9.152c0-1.195-.298-2.09-.896-2.688-.576-.597-1.408-.896-2.496-.896-1.237 0-2.197.416-2.88 1.248-.682.81-1.024 1.952-1.024 3.424V23h-4.032Zm24.203.448c-1.131 0-2.144-.192-3.04-.576-.896-.405-1.611-.981-2.144-1.728-.512-.768-.768-1.696-.768-2.784 0-1.088.256-1.995.768-2.72.533-.747 1.258-1.301 2.176-1.664.938-.384 2.005-.576 3.2-.576h4.352v-.896c0-.747-.235-1.355-.704-1.824-.47-.49-1.216-.736-2.24-.736-1.003 0-1.75.235-2.24.704-.491.448-.811 1.035-.96 1.76l-3.712-1.248a6.404 6.404 0 0 1 1.216-2.208c.576-.683 1.333-1.227 2.272-1.632.96-.427 2.122-.64 3.488-.64 2.09 0 3.744.523 4.96 1.568 1.216 1.045 1.824 2.56 1.824 4.544v5.92c0 .64.298.96.896.96h1.28V23h-2.688c-.79 0-1.44-.192-1.952-.576a1.825 1.825 0 0 1-.768-1.536v-.032h-.608c-.086.256-.278.597-.576 1.024-.299.405-.768.768-1.408 1.088-.64.32-1.515.48-2.624.48Zm.704-3.264c1.13 0 2.048-.31 2.752-.928.725-.64 1.088-1.483 1.088-2.528v-.32h-4.064c-.747 0-1.334.16-1.76.48-.427.32-.64.768-.64 1.344 0 .576.224 1.045.672 1.408.448.363 1.098.544 1.952.544ZM190.851 23V7.128h3.968V8.92h.576c.235-.64.619-1.11 1.152-1.408.555-.299 1.195-.448 1.92-.448h1.92v3.584h-1.984c-1.024 0-1.867.277-2.528.832-.661.533-.992 1.365-.992 2.496V23h-4.032Zm16.796.448c-1.13 0-2.144-.192-3.04-.576-.896-.405-1.61-.981-2.144-1.728-.512-.768-.768-1.696-.768-2.784 0-1.088.256-1.995.768-2.72.534-.747 1.259-1.301 2.176-1.664.939-.384 2.006-.576 3.2-.576h4.352v-.896c0-.747-.234-1.355-.704-1.824-.469-.49-1.216-.736-2.24-.736-1.002 0-1.749.235-2.24.704-.49.448-.81 1.035-.96 1.76l-3.712-1.248a6.42 6.42 0 0 1 1.216-2.208c.576-.683 1.334-1.227 2.272-1.632.96-.427 2.123-.64 3.488-.64 2.091 0 3.744.523 4.96 1.568 1.216 1.045 1.824 2.56 1.824 4.544v5.92c0 .64.299.96.896.96h1.28V23h-2.688c-.789 0-1.44-.192-1.952-.576a1.825 1.825 0 0 1-.768-1.536v-.032h-.608c-.085.256-.277.597-.576 1.024-.298.405-.768.768-1.408 1.088-.64.32-1.514.48-2.624.48Zm.704-3.264c1.131 0 2.048-.31 2.752-.928.726-.64 1.088-1.483 1.088-2.528v-.32h-4.064c-.746 0-1.333.16-1.76.48-.426.32-.64.768-.64 1.344 0 .576.224 1.045.672 1.408.448.363 1.099.544 1.952.544ZM222.242 23V10.456h-4.032V7.128h4.032V4.184c0-1.088.32-1.952.96-2.592.662-.661 1.515-.992 2.56-.992h4.16v3.328h-2.752c-.597 0-.896.32-.896.96v2.24h4.16v3.328h-4.16V23h-4.032Z" fill="#fff"/></svg>