<svg width="37" height="32" fill="none" xmlns="http://www.w3.org/2000/svg"><path d="M1.584 24V7.2h5.88l2.904 14.64h.432L13.704 7.2h5.88V24h-3.072V9.528h-.432L13.2 24H7.968L5.088 9.528h-.432V24H1.584ZM29.416 24.336c-1.296 0-2.44-.232-3.432-.696-.992-.464-1.768-1.128-2.328-1.992-.56-.864-.84-1.904-.84-3.12v-.672h3.12v.672c0 1.008.312 1.768.936 2.28.624.496 1.472.744 2.544.744 1.088 0 1.896-.216 2.424-.648.544-.432.816-.984.816-1.656 0-.464-.136-.84-.408-1.128-.256-.288-.64-.52-1.152-.696a12.853 12.853 0 0 0-1.824-.528l-.552-.12c-1.152-.256-2.144-.576-2.976-.96-.816-.4-1.448-.92-1.896-1.56-.432-.64-.648-1.472-.648-2.496s.24-1.896.72-2.616c.496-.736 1.184-1.296 2.064-1.68.896-.4 1.944-.6 3.144-.6 1.2 0 2.264.208 3.192.624.944.4 1.68 1.008 2.208 1.824.544.8.816 1.808.816 3.024v.72h-3.12v-.72c0-.64-.128-1.152-.384-1.536-.24-.4-.592-.688-1.056-.864-.464-.192-1.016-.288-1.656-.288-.96 0-1.672.184-2.136.552-.448.352-.672.84-.672 1.464 0 .416.104.768.312 1.056.224.288.552.528.984.72.432.192.984.36 1.656.504l.552.12c1.2.256 2.24.584 3.12.984.896.4 1.592.928 2.088 1.584s.744 1.496.744 2.52-.264 1.928-.792 2.712c-.512.768-1.248 1.376-2.208 1.824-.944.432-2.064.648-3.36.648Z" fill="#fff"/></svg>