<svg width="47" height="29" fill="none" xmlns="http://www.w3.org/2000/svg"><rect width="47" height="29" rx="7" fill="#151515"/><path d="M3.955 27.853v-22.4h7.84l3.872 19.52h.576l3.872-19.52h7.84v22.4H23.86V8.557h-.576l-3.84 19.296h-6.976L8.627 8.557h-.576v19.296H3.955ZM37.535 28.3c-1.728 0-3.253-.308-4.576-.927-1.323-.619-2.357-1.504-3.104-2.656-.747-1.152-1.12-2.539-1.12-4.16v-.896h4.16v.896c0 1.344.416 2.357 1.248 3.04.832.661 1.963.992 3.392.992 1.45 0 2.528-.288 3.232-.864.725-.576 1.088-1.312 1.088-2.208 0-.619-.181-1.12-.544-1.504-.341-.384-.853-.693-1.536-.928-.661-.256-1.472-.49-2.432-.704l-.736-.16c-1.536-.341-2.859-.768-3.968-1.28-1.088-.533-1.93-1.227-2.528-2.08-.576-.853-.864-1.963-.864-3.328 0-1.365.32-2.528.96-3.488.661-.981 1.579-1.728 2.752-2.24 1.195-.533 2.592-.8 4.192-.8s3.019.277 4.256.832c1.259.533 2.24 1.344 2.944 2.432.725 1.067 1.088 2.41 1.088 4.032v.96h-4.16v-.96c0-.853-.17-1.536-.512-2.048-.32-.533-.79-.917-1.408-1.152-.619-.256-1.355-.384-2.208-.384-1.28 0-2.23.245-2.848.736-.597.47-.896 1.12-.896 1.952 0 .555.139 1.024.416 1.408.299.384.736.704 1.312.96.576.256 1.312.48 2.208.672l.736.16c1.6.341 2.987.779 4.16 1.312 1.195.533 2.123 1.237 2.784 2.112.661.875.992 1.995.992 3.36 0 1.365-.352 2.57-1.056 3.616-.683 1.024-1.664 1.835-2.944 2.432-1.259.576-2.752.864-4.48.864Z" fill="#4EE1A0"/></svg>